<svg width="21" height="21" viewBox="0 0 21 21" fill="none" xmlns="http://www.w3.org/2000/svg">
<path d="M10.6437 7.63385C11.0489 8.04009 11.2723 8.57676 11.2723 9.1455H13.4105C13.4114 8.58363 13.301 8.02715 13.0855 7.50822C12.8701 6.98929 12.554 6.5182 12.1554 6.1222C10.5368 4.50578 7.73053 4.50578 6.11304 6.1222L7.62255 7.63599C8.43504 6.82564 9.83551 6.82778 10.6437 7.63385Z" fill="white"/>
<path d="M9.05298 17.605C10.9505 17.6046 12.7934 16.9694 14.2882 15.8004L18.9878 20.5L20.4994 18.9883L15.7998 14.2888C16.9694 12.7938 17.605 10.9505 17.6055 9.05249C17.6055 4.33686 13.7686 0.5 9.05298 0.5C4.33735 0.5 0.500488 4.33686 0.500488 9.05249C0.500488 13.7681 4.33735 17.605 9.05298 17.605ZM9.05298 2.63812C12.5905 2.63812 15.4673 5.51497 15.4673 9.05249C15.4673 12.59 12.5905 15.4669 9.05298 15.4669C5.51546 15.4669 2.63861 12.59 2.63861 9.05249C2.63861 5.51497 5.51546 2.63812 9.05298 2.63812Z" fill="white"/>
</svg>
