<svg width="50" height="35" viewBox="0 0 50 35" fill="none" xmlns="http://www.w3.org/2000/svg">
<path d="M2.532 0.000250015C2.20119 -0.00443504 1.87275 0.0567674 1.56577 0.1803C1.25879 0.303833 0.97938 0.487232 0.743792 0.719839C0.508203 0.952447 0.321129 1.22962 0.193442 1.53526C0.0657542 1.8409 0 2.16891 0 2.50021C0 2.83152 0.0657542 3.15953 0.193442 3.46517C0.321129 3.7708 0.508203 4.04798 0.743792 4.28059C0.97938 4.5132 1.25879 4.6966 1.56577 4.82013C1.87275 4.94366 2.20119 5.00486 2.532 5.00018H47.468C47.7988 5.00486 48.1272 4.94366 48.4342 4.82013C48.7412 4.6966 49.0206 4.5132 49.2562 4.28059C49.4918 4.04798 49.6789 3.7708 49.8066 3.46517C49.9342 3.15953 50 2.83152 50 2.50021C50 2.16891 49.9342 1.8409 49.8066 1.53526C49.6789 1.22962 49.4918 0.952447 49.2562 0.719839C49.0206 0.487232 48.7412 0.303833 48.4342 0.1803C48.1272 0.0567674 47.7988 -0.00443504 47.468 0.000250015H2.532ZM2.532 15C2.20119 14.9954 1.87275 15.0566 1.56577 15.1801C1.25879 15.3036 0.97938 15.487 0.743792 15.7196C0.508203 15.9522 0.321129 16.2294 0.193442 16.535C0.0657542 16.8407 0 17.1687 0 17.5C0 17.8313 0.0657542 18.1593 0.193442 18.465C0.321129 18.7706 0.508203 19.0478 0.743792 19.2804C0.97938 19.513 1.25879 19.6964 1.56577 19.8199C1.87275 19.9434 2.20119 20.0046 2.532 20H47.468C47.7988 20.0046 48.1272 19.9434 48.4342 19.8199C48.7412 19.6964 49.0206 19.513 49.2562 19.2804C49.4918 19.0478 49.6789 18.7706 49.8066 18.465C49.9342 18.1593 50 17.8313 50 17.5C50 17.1687 49.9342 16.8407 49.8066 16.535C49.6789 16.2294 49.4918 15.9522 49.2562 15.7196C49.0206 15.487 48.7412 15.3036 48.4342 15.1801C48.1272 15.0566 47.7988 14.9954 47.468 15H2.532ZM2.532 29.9998C2.20119 29.9951 1.87275 30.0563 1.56577 30.1799C1.25879 30.3034 0.97938 30.4868 0.743792 30.7194C0.508203 30.952 0.321129 31.2292 0.193442 31.5348C0.0657542 31.8405 0 32.1685 0 32.4998C0 32.8311 0.0657542 33.1591 0.193442 33.4647C0.321129 33.7704 0.508203 34.0476 0.743792 34.2802C0.97938 34.5128 1.25879 34.6962 1.56577 34.8197C1.87275 34.9432 2.20119 35.0044 2.532 34.9997H47.468C47.7988 35.0044 48.1272 34.9432 48.4342 34.8197C48.7412 34.6962 49.0206 34.5128 49.2562 34.2802C49.4918 34.0476 49.6789 33.7704 49.8066 33.4647C49.9342 33.1591 50 32.8311 50 32.4998C50 32.1685 49.9342 31.8405 49.8066 31.5348C49.6789 31.2292 49.4918 30.952 49.2562 30.7194C49.0206 30.4868 48.7412 30.3034 48.4342 30.1799C48.1272 30.0563 47.7988 29.9951 47.468 29.9998H2.532Z" fill="white"/>
</svg>
